<svg id="Capa_1" enable-background="new 0 0 512 512" height="512" viewBox="0 0 512 512" width="512" xmlns="http://www.w3.org/2000/svg"><g><ellipse cx="254.54" cy="256" fill="#b3ceec" rx="254.54" ry="255.981"/><path d="m152.397 146.346v221.182c0 20.824 22.48 33.893 40.577 23.59l194.236-110.591c18.286-10.411 18.286-36.768 0-47.18l-194.236-110.591c-18.097-10.303-40.577 2.766-40.577 23.59z" fill="#f07281"/><path d="m256 0c-5.891 0-11.73.217-17.521.609 133.21 9.006 238.479 119.897 238.479 255.391s-105.269 246.385-238.479 255.391c5.791.392 11.63.609 17.521.609 141.385 0 256-114.615 256-256s-114.615-256-256-256z" fill="#98bce5"/></g></svg>