<?xml version="1.0" standalone="no"?><svg xmlns="http://www.w3.org/2000/svg" viewBox="0 0 1440 320"><path fill="#be4b68" fill-opacity="1" d="M0,160L34.3,170.7C68.6,181,137,203,206,186.7C274.3,171,343,117,411,101.3C480,85,549,107,617,128C685.7,149,754,171,823,165.3C891.4,160,960,128,1029,112C1097.1,96,1166,96,1234,122.7C1302.9,149,1371,203,1406,229.3L1440,256L1440,0L1405.7,0C1371.4,0,1303,0,1234,0C1165.7,0,1097,0,1029,0C960,0,891,0,823,0C754.3,0,686,0,617,0C548.6,0,480,0,411,0C342.9,0,274,0,206,0C137.1,0,69,0,34,0L0,0Z"></path></svg>