<?xml version="1.0" standalone="no"?><svg xmlns="http://www.w3.org/2000/svg" viewBox="0 0 1440 320"><path fill="#ecc2ae" fill-opacity="1" d="M0,128L8,154.7C16,181,32,235,48,250.7C64,267,80,245,96,245.3C112,245,128,267,144,256C160,245,176,203,192,165.3C208,128,224,96,240,106.7C256,117,272,171,288,170.7C304,171,320,117,336,85.3C352,53,368,43,384,80C400,117,416,203,432,229.3C448,256,464,224,480,181.3C496,139,512,85,528,106.7C544,128,560,224,576,272C592,320,608,320,624,309.3C640,299,656,277,672,250.7C688,224,704,192,720,160C736,128,752,96,768,96C784,96,800,128,816,149.3C832,171,848,181,864,186.7C880,192,896,192,912,165.3C928,139,944,85,960,69.3C976,53,992,75,1008,112C1024,149,1040,203,1056,202.7C1072,203,1088,149,1104,138.7C1120,128,1136,160,1152,192C1168,224,1184,256,1200,245.3C1216,235,1232,181,1248,170.7C1264,160,1280,192,1296,170.7C1312,149,1328,75,1344,74.7C1360,75,1376,149,1392,186.7C1408,224,1424,224,1432,224L1440,224L1440,0L1432,0C1424,0,1408,0,1392,0C1376,0,1360,0,1344,0C1328,0,1312,0,1296,0C1280,0,1264,0,1248,0C1232,0,1216,0,1200,0C1184,0,1168,0,1152,0C1136,0,1120,0,1104,0C1088,0,1072,0,1056,0C1040,0,1024,0,1008,0C992,0,976,0,960,0C944,0,928,0,912,0C896,0,880,0,864,0C848,0,832,0,816,0C800,0,784,0,768,0C752,0,736,0,720,0C704,0,688,0,672,0C656,0,640,0,624,0C608,0,592,0,576,0C560,0,544,0,528,0C512,0,496,0,480,0C464,0,448,0,432,0C416,0,400,0,384,0C368,0,352,0,336,0C320,0,304,0,288,0C272,0,256,0,240,0C224,0,208,0,192,0C176,0,160,0,144,0C128,0,112,0,96,0C80,0,64,0,48,0C32,0,16,0,8,0L0,0Z"></path></svg>