<?xml version="1.0" standalone="no"?><svg xmlns="http://www.w3.org/2000/svg" viewBox="0 0 1440 320"><path fill="#f8f0d9" fill-opacity="1" d="M0,64L15,69.3C30,75,60,85,90,106.7C120,128,150,160,180,149.3C210,139,240,85,270,69.3C300,53,330,75,360,117.3C390,160,420,224,450,213.3C480,203,510,117,540,112C570,107,600,181,630,181.3C660,181,690,107,720,85.3C750,64,780,96,810,90.7C840,85,870,43,900,32C930,21,960,43,990,96C1020,149,1050,235,1080,261.3C1110,288,1140,256,1170,208C1200,160,1230,96,1260,106.7C1290,117,1320,203,1350,208C1380,213,1410,139,1425,101.3L1440,64L1440,0L1425,0C1410,0,1380,0,1350,0C1320,0,1290,0,1260,0C1230,0,1200,0,1170,0C1140,0,1110,0,1080,0C1050,0,1020,0,990,0C960,0,930,0,900,0C870,0,840,0,810,0C780,0,750,0,720,0C690,0,660,0,630,0C600,0,570,0,540,0C510,0,480,0,450,0C420,0,390,0,360,0C330,0,300,0,270,0C240,0,210,0,180,0C150,0,120,0,90,0C60,0,30,0,15,0L0,0Z"></path></svg>