<?xml version="1.0" standalone="no"?><svg xmlns="http://www.w3.org/2000/svg" viewBox="0 0 1440 320"><path fill="#f36d8f" fill-opacity="1" d="M0,224L8.3,202.7C16.6,181,33,139,50,106.7C66.2,75,83,53,99,80C115.9,107,132,181,149,181.3C165.5,181,182,107,199,96C215.2,85,232,139,248,181.3C264.8,224,281,256,298,261.3C314.5,267,331,245,348,213.3C364.1,181,381,139,397,138.7C413.8,139,430,181,447,165.3C463.4,149,480,75,497,90.7C513.1,107,530,213,546,213.3C562.8,213,579,107,596,85.3C612.4,64,629,128,646,165.3C662.1,203,679,213,695,208C711.7,203,728,181,745,176C761.4,171,778,181,794,170.7C811,160,828,128,844,117.3C860.7,107,877,117,894,149.3C910.3,181,927,235,943,218.7C960,203,977,117,993,74.7C1009.7,32,1026,32,1043,32C1059.3,32,1076,32,1092,53.3C1109,75,1126,117,1142,138.7C1158.6,160,1175,160,1192,160C1208.3,160,1225,160,1241,160C1257.9,160,1274,160,1291,149.3C1307.6,139,1324,117,1341,90.7C1357.2,64,1374,32,1390,53.3C1406.9,75,1423,149,1432,186.7L1440,224L1440,320L1431.7,320C1423.4,320,1407,320,1390,320C1373.8,320,1357,320,1341,320C1324.1,320,1308,320,1291,320C1274.5,320,1258,320,1241,320C1224.8,320,1208,320,1192,320C1175.2,320,1159,320,1142,320C1125.5,320,1109,320,1092,320C1075.9,320,1059,320,1043,320C1026.2,320,1010,320,993,320C976.6,320,960,320,943,320C926.9,320,910,320,894,320C877.2,320,861,320,844,320C827.6,320,811,320,794,320C777.9,320,761,320,745,320C728.3,320,712,320,695,320C678.6,320,662,320,646,320C629,320,612,320,596,320C579.3,320,563,320,546,320C529.7,320,513,320,497,320C480,320,463,320,447,320C430.3,320,414,320,397,320C380.7,320,364,320,348,320C331,320,314,320,298,320C281.4,320,265,320,248,320C231.7,320,215,320,199,320C182.1,320,166,320,149,320C132.4,320,116,320,99,320C82.8,320,66,320,50,320C33.1,320,17,320,8,320L0,320Z"></path></svg>